<mxfile host="Electron" modified="2023-11-22T23:59:23.813Z" agent="Mozilla/5.0 (Windows NT 10.0; Win64; x64) AppleWebKit/537.36 (KHTML, like Gecko) draw.io/22.1.2 Chrome/114.0.5735.289 Electron/25.9.4 Safari/537.36" etag="OwQDzgjC3mLeqRf_Y6HT" version="22.1.2" type="device">
  <diagram name="PÃ¡gina-1" id="GyMiuBT1Pyr2yNcZUEMB">
    <mxGraphModel dx="1418" dy="820" grid="1" gridSize="10" guides="1" tooltips="1" connect="1" arrows="1" fold="1" page="1" pageScale="1" pageWidth="1654" pageHeight="2336" math="0" shadow="0">
      <root>
        <mxCell id="0" />
        <mxCell id="1" parent="0" />
        <mxCell id="a2cjYZJfG3m_LcbPK9gS-17" value="" style="rounded=0;whiteSpace=wrap;html=1;strokeWidth=3;" parent="1" vertex="1">
          <mxGeometry x="1100" y="40" width="140" height="222" as="geometry" />
        </mxCell>
        <mxCell id="5j5Y-MyxbCMVWvSRkFMW-1" value="" style="shape=mxgraph.cisco.storage.cloud;sketch=0;html=1;pointerEvents=1;dashed=0;fillColor=#036897;strokeColor=#ffffff;strokeWidth=2;verticalLabelPosition=bottom;verticalAlign=top;align=center;outlineConnect=0;" parent="1" vertex="1">
          <mxGeometry x="100" y="116" width="186" height="106" as="geometry" />
        </mxCell>
        <mxCell id="5j5Y-MyxbCMVWvSRkFMW-2" value="" style="shape=mxgraph.cisco.security.firewall;sketch=0;html=1;pointerEvents=1;dashed=0;fillColor=#036897;strokeColor=#ffffff;strokeWidth=2;verticalLabelPosition=bottom;verticalAlign=top;align=center;outlineConnect=0;" parent="1" vertex="1">
          <mxGeometry x="470" y="99" width="47" height="140" as="geometry" />
        </mxCell>
        <mxCell id="a2cjYZJfG3m_LcbPK9gS-2" value="" style="shape=mxgraph.cisco.security.firewall;sketch=0;html=1;pointerEvents=1;dashed=0;fillColor=#036897;strokeColor=#ffffff;strokeWidth=2;verticalLabelPosition=bottom;verticalAlign=top;align=center;outlineConnect=0;" parent="1" vertex="1">
          <mxGeometry x="880" y="93" width="50" height="152" as="geometry" />
        </mxCell>
        <mxCell id="a2cjYZJfG3m_LcbPK9gS-3" value="" style="endArrow=none;html=1;rounded=0;exitX=1;exitY=0.5;exitDx=0;exitDy=0;exitPerimeter=0;entryX=0;entryY=0.5;entryDx=0;entryDy=0;entryPerimeter=0;" parent="1" source="5j5Y-MyxbCMVWvSRkFMW-2" target="a2cjYZJfG3m_LcbPK9gS-2" edge="1">
          <mxGeometry width="50" height="50" relative="1" as="geometry">
            <mxPoint x="570" y="210" as="sourcePoint" />
            <mxPoint x="620" y="160" as="targetPoint" />
            <Array as="points">
              <mxPoint x="690" y="170" />
            </Array>
          </mxGeometry>
        </mxCell>
        <mxCell id="a2cjYZJfG3m_LcbPK9gS-9" value="" style="endArrow=none;html=1;rounded=0;entryX=0;entryY=0.5;entryDx=0;entryDy=0;entryPerimeter=0;exitX=0.98;exitY=0.5;exitDx=0;exitDy=0;exitPerimeter=0;" parent="1" source="5j5Y-MyxbCMVWvSRkFMW-1" target="5j5Y-MyxbCMVWvSRkFMW-2" edge="1">
          <mxGeometry width="50" height="50" relative="1" as="geometry">
            <mxPoint x="240" y="290" as="sourcePoint" />
            <mxPoint x="290" y="240" as="targetPoint" />
          </mxGeometry>
        </mxCell>
        <mxCell id="a2cjYZJfG3m_LcbPK9gS-11" value="" style="shape=mxgraph.cisco.computers_and_peripherals.terminal;sketch=0;html=1;pointerEvents=1;dashed=0;fillColor=#036897;strokeColor=#ffffff;strokeWidth=2;verticalLabelPosition=bottom;verticalAlign=top;align=center;outlineConnect=0;" parent="1" vertex="1">
          <mxGeometry x="1171" y="197" width="50" height="45" as="geometry" />
        </mxCell>
        <mxCell id="a2cjYZJfG3m_LcbPK9gS-12" value="" style="endArrow=none;html=1;rounded=0;exitX=1;exitY=0.5;exitDx=0;exitDy=0;exitPerimeter=0;" parent="1" source="a2cjYZJfG3m_LcbPK9gS-2" edge="1">
          <mxGeometry width="50" height="50" relative="1" as="geometry">
            <mxPoint x="990" y="170" as="sourcePoint" />
            <mxPoint x="1110" y="170" as="targetPoint" />
          </mxGeometry>
        </mxCell>
        <mxCell id="a2cjYZJfG3m_LcbPK9gS-14" value="" style="endArrow=none;html=1;rounded=0;" parent="1" target="a2cjYZJfG3m_LcbPK9gS-11" edge="1">
          <mxGeometry width="50" height="50" relative="1" as="geometry">
            <mxPoint x="1110" y="170" as="sourcePoint" />
            <mxPoint x="1130" y="200" as="targetPoint" />
            <Array as="points">
              <mxPoint x="1110" y="220" />
            </Array>
          </mxGeometry>
        </mxCell>
        <mxCell id="a2cjYZJfG3m_LcbPK9gS-15" value="" style="shape=mxgraph.cisco.computers_and_peripherals.terminal;sketch=0;html=1;pointerEvents=1;dashed=0;fillColor=#036897;strokeColor=#ffffff;strokeWidth=2;verticalLabelPosition=bottom;verticalAlign=top;align=center;outlineConnect=0;" parent="1" vertex="1">
          <mxGeometry x="1171" y="93" width="50" height="45" as="geometry" />
        </mxCell>
        <mxCell id="a2cjYZJfG3m_LcbPK9gS-16" value="" style="endArrow=none;html=1;rounded=0;" parent="1" edge="1">
          <mxGeometry width="50" height="50" relative="1" as="geometry">
            <mxPoint x="1110" y="170" as="sourcePoint" />
            <mxPoint x="1170" y="120" as="targetPoint" />
            <Array as="points">
              <mxPoint x="1110" y="120" />
            </Array>
          </mxGeometry>
        </mxCell>
        <mxCell id="a2cjYZJfG3m_LcbPK9gS-18" value="&lt;font style=&quot;font-size: 26px;&quot;&gt;&lt;b&gt;LAN&lt;/b&gt;&lt;/font&gt;" style="text;html=1;strokeColor=none;fillColor=none;align=center;verticalAlign=middle;whiteSpace=wrap;rounded=0;" parent="1" vertex="1">
          <mxGeometry x="1111" y="52" width="60" height="30" as="geometry" />
        </mxCell>
        <mxCell id="a2cjYZJfG3m_LcbPK9gS-31" value="&lt;font style=&quot;font-size: 16px;&quot;&gt;&lt;b&gt;Firewall Externo&lt;/b&gt;&lt;/font&gt;" style="text;html=1;strokeColor=none;fillColor=none;align=center;verticalAlign=middle;whiteSpace=wrap;rounded=0;" parent="1" vertex="1">
          <mxGeometry x="429.88" y="63" width="127.25" height="30" as="geometry" />
        </mxCell>
        <mxCell id="a2cjYZJfG3m_LcbPK9gS-32" value="&lt;font style=&quot;font-size: 16px;&quot;&gt;&lt;b&gt;Firewall Interno&lt;br&gt;&lt;/b&gt;&lt;/font&gt;" style="text;html=1;strokeColor=none;fillColor=none;align=center;verticalAlign=middle;whiteSpace=wrap;rounded=0;" parent="1" vertex="1">
          <mxGeometry x="841.38" y="63" width="127.25" height="30" as="geometry" />
        </mxCell>
        <mxCell id="a2cjYZJfG3m_LcbPK9gS-33" value="&lt;font style=&quot;font-size: 15px;&quot;&gt;10.6.128.X&lt;/font&gt;" style="text;html=1;strokeColor=none;fillColor=none;align=center;verticalAlign=middle;whiteSpace=wrap;rounded=0;" parent="1" vertex="1">
          <mxGeometry x="330" y="192" width="80" height="30" as="geometry" />
        </mxCell>
        <mxCell id="a2cjYZJfG3m_LcbPK9gS-34" value="&lt;font style=&quot;font-size: 15px;&quot;&gt;172.16.10.0/24&lt;/font&gt;" style="text;html=1;strokeColor=none;fillColor=none;align=center;verticalAlign=middle;whiteSpace=wrap;rounded=0;" parent="1" vertex="1">
          <mxGeometry x="968.63" y="192" width="100" height="30" as="geometry" />
        </mxCell>
        <mxCell id="a2cjYZJfG3m_LcbPK9gS-35" value="&lt;font style=&quot;font-size: 15px;&quot;&gt;192.168.10.0/24&lt;/font&gt;" style="text;html=1;strokeColor=none;fillColor=none;align=center;verticalAlign=middle;whiteSpace=wrap;rounded=0;" parent="1" vertex="1">
          <mxGeometry x="651.6" y="222" width="111.53" height="30" as="geometry" />
        </mxCell>
        <mxCell id="a2cjYZJfG3m_LcbPK9gS-39" value="&lt;font color=&quot;#ffffff&quot;&gt;&lt;span style=&quot;font-size: 15px;&quot;&gt;Internet&lt;/span&gt;&lt;/font&gt;" style="text;html=1;strokeColor=none;fillColor=none;align=center;verticalAlign=middle;whiteSpace=wrap;rounded=0;" parent="1" vertex="1">
          <mxGeometry x="153" y="154" width="80" height="30" as="geometry" />
        </mxCell>
        <mxCell id="a2cjYZJfG3m_LcbPK9gS-44" value="&lt;font style=&quot;font-size: 15px;&quot;&gt;.10.2&lt;br&gt;&lt;/font&gt;" style="text;html=1;strokeColor=none;fillColor=none;align=center;verticalAlign=middle;whiteSpace=wrap;rounded=0;" parent="1" vertex="1">
          <mxGeometry x="517" y="184" width="41.53" height="30" as="geometry" />
        </mxCell>
        <mxCell id="a2cjYZJfG3m_LcbPK9gS-48" value="&lt;font style=&quot;font-size: 15px;&quot;&gt;.10.1&lt;br&gt;&lt;/font&gt;" style="text;html=1;strokeColor=none;fillColor=none;align=center;verticalAlign=middle;whiteSpace=wrap;rounded=0;" parent="1" vertex="1">
          <mxGeometry x="827" y="184" width="41.53" height="30" as="geometry" />
        </mxCell>
        <mxCell id="u4BKTcfePLh4MiPpXyE0-1" value="&lt;font style=&quot;font-size: 26px;&quot;&gt;&lt;b&gt;DMZ&lt;/b&gt;&lt;/font&gt;" style="text;html=1;strokeColor=none;fillColor=none;align=center;verticalAlign=middle;whiteSpace=wrap;rounded=0;" parent="1" vertex="1">
          <mxGeometry x="677.37" y="69" width="60" height="30" as="geometry" />
        </mxCell>
      </root>
    </mxGraphModel>
  </diagram>
</mxfile>
